Jump_normalized_Motion_pl02
version=1
nRows=21
nColumns=43
inDegrees=yes
endheader
time		pelvis_tilt		pelvis_list		pelvis_rotation		pelvis_tx		pelvis_ty		pelvis_tz		hip_flexion_r		hip_adduction_r		hip_rotation_r		knee_angle_r		ankle_angle_r		subtalar_angle_r		mtp_angle_r		hip_flexion_l		hip_adduction_l		hip_rotation_l		knee_angle_l		ankle_angle_l		subtalar_angle_l		mtp_angle_l		lumbar_extension		lumbar_bending		lumbar_rotation		neck_flexion		neck_lateral_bending		neck_rotation		arm_flex_r		arm_add_r		arm_rot_r		elbow_flex_r		pro_sup_r		wrist_flex_r		wrist_dev_r		hand_finger_flex_r		arm_flex_l		arm_add_l		arm_rot_l		elbow_flex_l		pro_sup_l		wrist_flex_l		wrist_dev_l		hand_finger_flex_l		
0.170833		0.797153		-19.030560		84.909814		0.067095		1.831933		1.683391		64.428139		-1.976074		5.716071		-132.605167		23.632062		3.693118		18.095003		69.868953		-9.329705		11.059203		-133.744109		-2.390065		21.925930		37.014918		-37.016053		1.549381		5.256471		29.511286		1.094006		-0.297756		91.092598		-20.745489		11.711617		91.433545		121.755900		17.486842		2.244791		-27.599580		86.756837		-18.970785		17.388086		67.414438		121.513368		-12.545889		-0.774471		2.078484		
0.173384		0.708402		-19.083515		84.856124		0.066877		1.832943		1.678855		63.921268		-2.006923		5.877761		-132.301277		23.374089		3.755010		18.126980		69.797591		-9.226351		10.899409		-133.388227		-3.939243		21.614697		36.564443		-36.723365		1.511775		5.219837		29.131726		1.163677		-0.300631		91.614886		-20.360477		11.869449		91.115233		121.869359		17.695333		2.406030		-27.524701		86.986706		-18.807538		17.407887		67.274770		121.523380		-12.504346		-0.714199		1.987062		
0.175934		0.616903		-19.091129		84.819464		0.066717		1.834083		1.674206		63.359074		-2.042628		6.032642		-131.982196		23.066275		3.816495		18.172390		69.710977		-9.122063		10.719961		-132.981643		-5.753974		21.121043		35.939177		-36.496969		1.470576		5.181199		28.724518		1.149195		-0.272747		92.092476		-20.018825		11.980593		90.885342		121.979398		17.937918		2.551192		-27.442864		87.211436		-18.680035		17.453398		67.178991		121.527228		-12.434101		-0.687291		1.866006		
0.178485		0.548918		-19.095516		84.793304		0.066549		1.835187		1.669539		62.802439		-2.065025		6.157614		-131.664912		22.753694		3.856662		18.229313		69.610542		-9.020958		10.539849		-132.566880		-7.437532		20.504387		35.221156		-36.279500		1.446238		5.165845		28.405606		1.185063		-0.276269		92.560103		-19.683605		12.088351		90.647195		122.078814		18.170276		2.677111		-27.369130		87.441857		-18.524704		17.496158		67.059216		121.510933		-12.334214		-0.667455		1.717171		
0.181035		0.319521		-18.981167		84.690196		0.066362		1.836613		1.664723		62.154807		-2.181027		6.481475		-131.343704		22.346459		3.972995		18.869560		69.327638		-8.854121		10.041114		-132.140987		-8.683061		19.402953		31.760591		-36.202589		1.260088		5.109921		28.110155		1.130403		-0.259177		92.980105		-19.370395		12.092292		90.487854		122.308900		18.549338		2.726131		-27.446670		87.694407		-18.372936		17.519869		66.962112		121.411767		-11.680387		-0.663917		0.490152		
0.183586		0.113552		-18.874633		84.597371		0.066169		1.837939		1.659858		61.501440		-2.295036		6.782824		-131.022316		21.943934		4.066976		19.720629		69.067180		-8.690205		9.560127		-131.722006		-9.704382		18.265592		27.350260		-36.114548		1.086370		5.077357		27.906284		1.127304		-0.278213		93.362445		-19.093728		12.104356		90.338832		122.527354		18.923961		2.737740		-27.602864		87.939087		-18.207657		17.530924		66.875526		121.308202		-10.800670		-0.652972		-1.164319		
0.186136		0.214377		-18.915884		84.678714		0.066144		1.838832		1.655025		60.925226		-2.237607		6.685217		-130.672729		21.625646		3.975655		19.733704		69.104686		-8.643332		9.614914		-131.273420		-11.395859		17.692385		26.832066		-35.864540		1.200880		5.147769		27.617307		1.214677		-0.354384		93.729566		-18.953709		12.284929		90.180531		122.447364		18.992940		2.814629		-27.568513		88.121158		-18.034211		17.598380		66.792275		121.342861		-10.624537		-0.616589		-1.345869		
0.188687		0.229542		-18.890483		84.720102		0.066079		1.839888		1.650180		60.308767		-2.222529		6.695530		-130.321988		21.236905		3.915774		19.760916		69.044280		-8.561069		9.533745		-130.782916		-12.937922		16.949401		26.307426		-35.690140		1.240554		5.208106		27.267067		1.247509		-0.422191		94.116428		-18.805297		12.473537		89.987225		122.364901		19.022917		2.894488		-27.530223		88.325999		-17.842650		17.669959		66.658771		121.367724		-10.412534		-0.542150		-1.569879		
0.191237		0.208111		-18.831648		84.741466		0.065984		1.840927		1.645272		59.674460		-2.227171		6.764408		-129.987782		20.837876		3.878848		19.813359		68.947874		-8.466442		9.392237		-130.285158		-14.339996		16.140595		25.808459		-35.541577		1.234045		5.240152		26.936754		1.295164		-0.504034		94.479685		-18.682397		12.670381		89.775942		122.273424		19.016412		2.956452		-27.485764		88.527871		-17.652636		17.765767		66.517155		121.392299		-10.178997		-0.432769		-1.839027		
0.193788		0.167152		-18.751024		84.756041		0.065865		1.841948		1.640297		59.031233		-2.243449		6.866338		-129.665422		20.419703		3.841705		19.897391		68.830802		-8.362074		9.217368		-129.783891		-15.562794		15.287336		25.337891		-35.409006		1.201642		5.249689		26.643149		1.344455		-0.596401		94.811144		-18.585090		12.867170		89.555568		122.169041		18.981377		2.993624		-27.429720		88.718211		-17.463526		17.885681		66.372390		121.418843		-9.928191		-0.282953		-2.172996		
0.196338		0.104523		-18.671694		84.764058		0.065774		1.842976		1.635341		58.409326		-2.263665		6.979646		-129.339032		19.945638		3.807552		20.000918		68.711893		-8.248530		9.038324		-129.247340		-16.574873		14.493791		24.917818		-35.281222		1.147205		5.261810		26.318704		1.411504		-0.701217		95.144613		-18.489744		13.059475		89.321972		122.073724		18.941558		3.006991		-27.357360		88.913957		-17.280019		18.020796		66.220890		121.444116		-9.681919		-0.089392		-2.549719		
0.198889		0.053747		-18.639738		84.769284		0.065712		1.843860		1.630475		57.875904		-2.258755		7.087426		-129.033001		19.445110		3.804358		20.058381		68.654602		-8.157944		8.919181		-128.721258		-17.214641		13.972294		24.643832		-35.101249		1.096069		5.265995		25.952483		1.549861		-0.823149		95.487141		-18.372110		13.256534		89.035123		122.036544		18.948150		3.031245		-27.287228		89.089221		-17.108288		18.138148		66.066147		121.460786		-9.512092		0.095611		-2.817379		
0.201439		-0.021050		-18.539691		84.790999		0.065614		1.844933		1.625497		57.271527		-2.293687		7.191657		-128.709900		18.871329		3.681671		20.186730		68.525039		-8.040927		8.726483		-128.159676		-17.734992		13.163224		24.298717		-35.015609		1.023342		5.276416		25.693954		1.640986		-0.967000		95.789828		-18.308741		13.393845		88.809653		121.978691		18.943035		2.958903		-27.192455		89.294312		-16.912200		18.325026		65.914230		121.477224		-9.332476		0.367450		-3.230479		
0.203990		-0.084830		-18.476848		84.820088		0.065558		1.845881		1.620547		56.731051		-2.304622		7.294226		-128.401978		18.261206		3.629717		20.278100		68.451863		-7.946756		8.579659		-127.615305		-17.932614		12.560057		24.040150		-34.880516		0.962241		5.277167		25.383009		1.742970		-1.087059		96.067553		-18.223208		13.527726		88.561626		121.955813		18.961582		2.930121		-27.106607		89.469965		-16.728098		18.496004		65.747406		121.487882		-9.179544		0.601071		-3.565306		
0.206540		-0.127586		-18.462032		84.867863		0.065514		1.846685		1.615667		56.276059		-2.299103		7.382477		-128.110530		17.569079		3.656421		20.291489		68.450142		-7.872421		8.496874		-127.096553		-17.748482		12.233654		23.911778		-34.688032		0.926472		5.276903		24.994539		1.841950		-1.190746		96.324804		-18.120903		13.651772		88.293930		121.974770		19.023150		2.941180		-27.039912		89.629023		-16.535732		18.655633		65.548590		121.499653		-9.079049		0.791831		-3.750448		
0.209091		-0.174221		-18.416531		84.938639		0.065416		1.847534		1.610716		55.783269		-2.316345		7.459629		-127.810257		16.843294		3.626388		20.317438		68.422924		-7.785217		8.373305		-126.588306		-17.347289		11.795337		23.785343		-34.534816		0.894858		5.271150		24.670075		1.938176		-1.318055		96.554526		-18.047563		13.751982		88.045598		121.988400		19.095360		2.918241		-26.969560		89.795866		-16.327340		18.842740		65.333931		121.518743		-8.994580		1.005132		-3.963809		
0.211641		-0.347287		-18.200735		84.948116		0.065293		1.848777		1.605625		55.103288		-2.432743		7.675701		-127.473425		16.042965		3.576188		21.602411		68.159244		-7.650937		7.991566		-126.058338		-16.531915		11.036328		22.058590		-34.599161		0.719603		5.225056		24.515310		2.043025		-1.415878		96.774127		-17.964808		13.754470		87.848671		122.137666		19.117460		2.830737		-26.677981		90.044901		-16.171635		19.105353		65.156847		121.352838		-8.231423		1.247345		-6.071007		
0.214192		-0.433134		-18.112595		85.025915		0.065150		1.849636		1.600570		54.526790		-2.497658		7.786987		-127.147513		15.342362		3.552004		22.216864		68.101795		-7.552529		7.758507		-125.574573		-15.692652		10.578600		21.236333		-34.496853		0.652702		5.171855		24.204481		2.167875		-1.556070		96.961018		-17.909539		13.835389		87.618205		122.207589		19.176178		2.800419		-26.510172		90.189713		-16.002122		19.281430		64.986597		121.307899		-7.790591		1.421802		-7.154693		
0.216742		-0.451823		-18.105535		85.169540		0.064944		1.850230		1.595536		54.000100		-2.538911		7.812004		-126.820808		14.743901		3.545918		22.151764		68.175825		-7.459357		7.630333		-125.128060		-14.796793		10.310612		21.353789		-34.293551		0.680122		5.124606		23.863346		2.256649		-1.692899		97.105064		-17.849095		13.921585		87.371271		122.201918		19.250821		2.816819		-26.474722		90.291276		-15.790943		19.427829		64.763149		121.392110		-7.714458		1.547647		-7.200740		
0.219293		-0.490816		-18.048716		85.321457		0.064689		1.850885		1.590445		53.385027		-2.614593		7.852458		-126.473865		14.219324		3.550162		22.112646		68.198574		-7.341496		7.444369		-124.679257		-13.828722		10.020683		21.505318		-34.153717		0.689826		5.052247		23.544328		2.350052		-1.823236		97.231011		-17.790940		13.979753		87.137600		122.206810		19.328659		2.839121		-26.437576		90.401363		-15.597537		19.598407		64.547740		121.492515		-7.655111		1.638129		-7.266280		
0.221843		-0.552062		-17.949620		85.479977		0.064405		1.851558		1.585310		52.694604		-2.716954		7.915547		-126.112995		13.759802		3.584341		22.100038		68.187273		-7.203799		7.213852		-124.225590		-12.897843		9.746068		21.690706		-34.064700		0.679865		4.946553		23.231049		2.444584		-1.950616		97.341691		-17.719795		14.011145		86.899901		122.226448		19.410396		2.871045		-26.396992		90.519744		-15.421385		19.781225		64.334396		121.604512		-7.601744		1.691065		-7.345067		
